<?xml version="1.0" encoding="UTF-8" standalone="no"?>
<svg
   version="1.0"
   width="1236.4808pt"
   height="259.86859pt"
   viewBox="0 0 1236.4809 259.86859"
   preserveAspectRatio="xMidYMid"
   id="svg7"
   xmlns="http://www.w3.org/2000/svg"
   xmlns:svg="http://www.w3.org/2000/svg">
  <defs
     id="defs7" />
  <g
     transform="matrix(0.1,0,0,-0.1,-403.99997,1141.8686)"
     fill="#000000"
     stroke="none"
     id="g7">
    <path
       d="m 12855,11404 c -478,-83 -851,-399 -999,-844 -50,-152 -69,-269 -69,-440 1,-387 127,-697 388,-949 241,-233 546,-351 909,-351 388,0 726,159 974,458 85,102 92,84 -81,213 -84,63 -183,136 -221,162 l -69,48 -25,-33 c -14,-18 -59,-67 -101,-108 -90,-89 -199,-149 -316,-175 -106,-24 -292,-16 -385,15 -240,82 -407,261 -471,507 -29,113 -30,298 -1,415 53,214 187,384 377,479 100,49 191,69 324,69 170,0 316,-49 435,-145 50,-41 133,-133 155,-172 9,-17 41,7 305,227 109,90 134,116 126,129 -21,38 -161,190 -225,244 -161,136 -359,221 -592,256 -98,15 -341,12 -438,-5 z"
       id="path1" />
    <path
       d="m 14583,11393 -313,-3 v -265 -265 h 1064 1063 l 5,263 c 3,144 4,265 1,270 -4,6 -1055,6 -1820,0 z"
       id="path2" />
    <path
       d="M 4040,10120 V 8850 h 290 290 v 655 654 l -89,163 c -147,270 -281,552 -268,564 13,13 352,-496 786,-1183 l 103,-163 h 158 c 125,0 159,3 163,14 5,14 238,375 435,676 l 102,155 v -768 -767 h 291 290 l -4,783 c -3,753 -4,787 -25,905 -65,363 -135,601 -236,800 l -26,52 h -159 -159 l -218,-357 c -351,-572 -448,-726 -458,-726 -6,0 -78,111 -160,245 -83,135 -234,378 -336,541 l -185,297 h -292 -293 z"
       id="path3" />
    <path
       d="m 6731,11368 c 7,-13 109,-182 227,-378 118,-195 322,-536 453,-758 l 239,-402 v -490 -490 h 290 291 l -3,453 -3,452 -35,85 c -101,249 -398,809 -734,1383 l -98,167 h -320 -319 z"
       id="path4" />
    <path
       d="m 8467,11268 c -41,-68 -150,-251 -242,-408 -92,-157 -180,-305 -195,-330 l -26,-45 86,-180 c 47,-99 108,-231 135,-293 49,-113 49,-113 67,-90 9,13 151,246 314,518 164,272 355,590 426,706 70,117 131,219 134,228 6,14 -24,16 -309,16 h -316 z"
       id="path5" />
    <path
       d="m 9360,11122 v -270 h 533 c 510,1 535,0 610,-20 208,-57 369,-202 452,-409 70,-175 73,-408 6,-597 -64,-182 -225,-341 -413,-407 -58,-21 -85,-23 -339,-27 l -276,-4 -7,273 -7,274 -33,87 c -45,118 -89,190 -167,268 -93,95 -203,156 -331,184 l -28,6 v -815 -815 h 531 c 428,0 552,3 636,16 404,59 726,281 907,623 57,110 110,267 131,396 21,127 21,358 1,477 -60,337 -251,640 -511,813 -144,95 -262,144 -450,186 -96,21 -125,22 -672,26 l -573,4 z"
       id="path6" />
    <path
       d="m 15030,9795 v -945 h 290 290 v 945 945 h -290 -290 z"
       id="path7" />
  </g>
</svg>
