<?xml version="1.0" encoding="UTF-8"?>
<svg version="1.1" xmlns="http://www.w3.org/2000/svg" width="2048" height="2048">
<path d="M0,0 L32,0 L49,3 L65,8 L81,16 L92,23 L105,35 L114,45 L119,52 L114,57 L104,66 L93,75 L79,86 L75,88 L67,77 L56,67 L40,59 L28,56 L4,56 L-12,60 L-25,67 L-37,77 L-46,90 L-52,103 L-55,116 L-56,133 L-54,150 L-49,165 L-43,175 L-34,186 L-22,195 L-9,201 L4,204 L27,204 L42,200 L56,192 L66,183 L75,172 L79,174 L91,182 L104,192 L120,204 L116,211 L107,221 L103,226 L92,235 L82,242 L65,251 L47,257 L30,260 L0,260 L-18,257 L-34,252 L-53,243 L-65,235 L-77,224 L-86,215 L-97,199 L-105,183 L-111,165 L-114,148 L-115,135 L-115,124 L-113,106 L-109,89 L-103,73 L-95,58 L-85,45 L-76,35 L-62,23 L-45,13 L-30,7 L-17,3 Z " fill="#000000" transform="translate(1293,906)"/>
<path d="M0,0 L151,0 L152,1 L151,54 L-62,54 L-62,1 Z " fill="#000000" transform="translate(1489,908)"/>
<path d="M0,0 L59,0 L75,26 L87,45 L99,64 L116,92 L126,108 L130,104 L139,89 L152,68 L169,40 L182,19 L194,0 L226,0 L234,16 L241,34 L248,61 L253,88 L255,106 L255,254 L197,254 L196,103 L186,118 L171,141 L155,166 L144,183 L143,185 L111,185 L101,170 L86,146 L72,124 L59,104 L35,68 L23,51 L28,64 L40,89 L55,117 L58,122 L58,254 L0,254 Z " fill="#000000" transform="translate(404,909)"/>
<path d="M0,0 L64,0 L74,17 L87,39 L103,67 L118,94 L142,142 L150,162 L151,165 L151,254 L93,254 L92,155 L75,127 L66,111 L57,96 L38,64 L25,43 L12,21 L0,1 Z " fill="#000000" transform="translate(672,909)"/>
<path d="M0,0 L63,0 L61,6 L48,27 L36,47 L17,79 L0,107 L-19,139 L-26,149 L-29,145 L-40,120 L-54,91 L-46,77 L-34,56 L-17,28 L-8,12 Z " fill="#000000" transform="translate(854,909)"/>
<path d="M0,0 L106,0 L127,3 L142,7 L158,14 L173,23 L183,32 L189,37 L200,51 L208,64 L215,80 L220,97 L222,109 L223,129 L221,151 L217,168 L211,184 L203,199 L193,212 L185,221 L174,230 L160,239 L142,247 L123,252 L109,254 L0,254 L0,91 L10,93 L20,97 L30,104 L40,113 L49,127 L55,142 L56,145 L57,168 L57,200 L108,199 L121,196 L133,190 L142,183 L151,173 L158,161 L162,149 L164,138 L164,116 L160,99 L152,83 L144,73 L136,66 L120,58 L108,55 L96,54 L0,54 Z " fill="#000000" transform="translate(936,909)"/>
<path d="M0,0 L58,0 L58,189 L0,189 Z " fill="#000000" transform="translate(1503,974)"/>
</svg>
